<svg xmlns="http://www.w3.org/2000/svg" width="24" height="24" fill="none" viewBox="0 0 24 24"><path stroke="currentColor" stroke-linecap="round" stroke-linejoin="round" stroke-width="1.5" d="M7.5 9.75V7.5a.75.75 0 0 1 .75-.75h7.5a.75.75 0 0 1 .75.75v2.25M7.875 21c.562-.563.632-1.107.632-1.903a3 3 0 0 0-.878-2.12 3 3 0 0 1-.017-4.227M12.375 21c.562-.563.632-1.107.632-1.903a3 3 0 0 0-.878-2.12 3 3 0 0 1-.017-4.227M16.875 21c.562-.563.632-1.107.632-1.903a3 3 0 0 0-.878-2.12 3 3 0 0 1-.017-4.227M6.5 3h11c1.105 0 2 .863 2 1.929V7.82c0 1.066-.895 1.929-2 1.929h-11c-1.105 0-2-.863-2-1.929V4.93c0-1.067.895-1.93 2-1.93"/></svg>