<svg xmlns="http://www.w3.org/2000/svg" width="24" height="24" fill="none" viewBox="0 0 24 24"><path stroke="currentColor" stroke-linecap="round" stroke-linejoin="round" stroke-width="1.5" d="M18.664 11.994c.876 0 1.586-.762 1.586-1.703 0-.94-.71-1.703-1.587-1.703-.876 0-1.586.762-1.586 1.703 0 .94.71 1.703 1.586 1.703m-13.326 0c.876 0 1.586-.762 1.586-1.703 0-.94-.71-1.703-1.586-1.703S3.75 9.35 3.75 10.29s.71 1.703 1.587 1.703m3.807-4.087c.877 0 1.587-.762 1.587-1.703 0-.94-.71-1.703-1.587-1.703-.876 0-1.586.763-1.586 1.703s.71 1.703 1.586 1.703m5.712 0c.876 0 1.586-.762 1.586-1.703 0-.94-.71-1.703-1.586-1.703s-1.587.763-1.587 1.703.71 1.703 1.587 1.703M12 9.95a2.73 2.73 0 0 0-1.716.616c-.494.4-.855.96-1.027 1.598-.254.94-.843 1.732-1.64 2.206A2.7 2.7 0 0 0 6.4 15.927a2.9 2.9 0 0 0 .126 2.03 2.62 2.62 0 0 0 1.399 1.37 2.38 2.38 0 0 0 1.893-.05 5.4 5.4 0 0 1 4.364 0 2.37 2.37 0 0 0 1.893.05 2.62 2.62 0 0 0 1.4-1.37 2.9 2.9 0 0 0 .125-2.03 2.7 2.7 0 0 0-1.219-1.557c-.796-.474-1.384-1.267-1.638-2.205a3.08 3.08 0 0 0-1.027-1.6A2.73 2.73 0 0 0 12 9.95"/></svg>