<svg xmlns="http://www.w3.org/2000/svg" width="24" height="24" fill="none" viewBox="0 0 24 24"><path fill="currentColor" d="M3 14.25a.75.75 0 0 0 0 1.5zm7.5 1.5a.75.75 0 0 0 0-1.5zm3-1.5a.75.75 0 0 0 0 1.5zm7.363 1.5a.75.75 0 1 0 0-1.5zM3 6.682h.75zm0-2.114h-.75zM4.636 7.5h-.75v12.682h1.5V7.5zM5.455 21v.75h2.454v-1.5H5.455zm3.272-.818h.75v-6.136h-1.5v6.136zm6.546-6.136h-.75v6.136h1.5v-6.136zM16.09 21v.75h2.454v-1.5H16.09zm3.272-.818h.75V7.5h-1.5v12.682zm-.818.818v.75c.866 0 1.568-.702 1.568-1.568h-1.5c0 .038-.03.068-.068.068zm-3.272-.818h-.75c0 .866.702 1.568 1.568 1.568v-1.5a.07.07 0 0 1-.068-.068zM12 10.772v.75a2.523 2.523 0 0 1 2.523 2.524h1.5A4.023 4.023 0 0 0 12 10.023zm-3.273 3.274h.75A2.523 2.523 0 0 1 12 11.523v-1.5a4.023 4.023 0 0 0-4.023 4.023zM7.91 21v.75c.866 0 1.568-.702 1.568-1.568h-1.5c0 .038-.03.068-.068.068zm-3.273-.818h-.75c0 .866.703 1.568 1.569 1.568v-1.5a.07.07 0 0 1-.069-.068zM3 15v.75h7.5v-1.5H3zm10.5 0v.75h7.363v-1.5H13.5zM3.818 3.75v.75h16.364V3H3.818zM21 4.568h-.75v2.114h1.5V4.568zM20.182 7.5v-.75H3.818v1.5h16.364zM3 6.682h.75V4.568h-1.5v2.114zm.818.818v-.75a.07.07 0 0 1-.068-.068h-1.5c0 .866.702 1.568 1.568 1.568zM21 6.682h-.75c0 .037-.03.068-.068.068v1.5c.866 0 1.568-.702 1.568-1.568zm-.818-2.932v.75c.038 0 .068.03.068.068h1.5c0-.866-.702-1.568-1.568-1.568zm-16.364 0V3c-.866 0-1.568.702-1.568 1.568h1.5c0-.037.03-.068.068-.068z"/></svg>