<svg xmlns="http://www.w3.org/2000/svg" width="24" height="24" fill="none" viewBox="0 0 24 24"><path fill="currentColor" d="m11.922 10.638-.49-.57zm3.46-2.973-.489-.569zm1.4-.302-.211.72zm1.64.481-.211.72zm.155 2.727.057.748zm-.835.064-.058-.748zm-4.615 5.119.75-.02zm.006.22-.75.02zm-3.805-3.645-.53.53zm5.465-6.536.53-.53zM12 4.75a.75.75 0 0 0 0 1.5zM4.303 8.565l-.712-.235zm2.495.199a.75.75 0 0 0 1.404-.528L7.5 8.5zm-3.081 1.58-.713-.236zM21 16h-.75a1.75 1.75 0 0 1-1.75 1.75v1.5A3.25 3.25 0 0 0 21.75 16zm-2.5 2.5v-.75A1.75 1.75 0 0 1 16.75 16h-1.5a3.25 3.25 0 0 0 3.25 3.25zM16 16h.75c0-.966.784-1.75 1.75-1.75v-1.5A3.25 3.25 0 0 0 15.25 16zm2.5-2.5v.75c.966 0 1.75.784 1.75 1.75h1.5a3.25 3.25 0 0 0-3.25-3.25zM8 16h-.75a1.75 1.75 0 0 1-1.75 1.75v1.5A3.25 3.25 0 0 0 8.75 16zm-2.5 2.5v-.75A1.75 1.75 0 0 1 3.75 16h-1.5a3.25 3.25 0 0 0 3.25 3.25zM3 16h.75c0-.966.784-1.75 1.75-1.75v-1.5A3.25 3.25 0 0 0 2.25 16zm2.5-2.5v.75c.966 0 1.75.784 1.75 1.75h1.5a3.25 3.25 0 0 0-3.25-3.25zm6.422-2.862.488.569 3.46-2.973-.488-.57-.489-.568-3.46 2.973zm4.86-3.275-.211.72 1.64.48.211-.719.211-.72-1.64-.48zm2.718 1.92h-.75v.291h1.5v-.29zm-.923 1.288-.058-.748-.835.064.058.748.057.748.835-.064zm-5.45 5.183-.75.02.006.22.75-.02.75-.02-.006-.22zM12.133 17v-.75H11.5v1.5h.633zm-7.942-6v.75H8v-1.5H4.191zM8 11v.75h2.944v-1.5H8zm2.5 5h.75v-.843h-1.5V16zm-1.172-3.67.53-.53-1.328-1.33L8 11l-.53.53 1.328 1.329zm1.172 2.828h.75c0-1.26-.5-2.468-1.391-3.359l-.53.53-.53.53c.609.61.951 1.437.951 2.299zm1 1.843v-.75a.25.25 0 0 1-.25-.25h-1.5c0 .967.784 1.75 1.75 1.75zm1.633-1.027-.75.02a.25.25 0 0 1-.25.257v1.5a1.75 1.75 0 0 0 1.75-1.797zm4.609-5.338-.058-.748a5.75 5.75 0 0 0-5.307 5.887l.75-.02.75-.02a4.25 4.25 0 0 1 3.922-4.351zM19.5 9.574h-.75c0 .13-.1.24-.23.25l.057.747.057.748a1.75 1.75 0 0 0 1.616-1.745zm-1.078-1.73-.211.72a.75.75 0 0 1 .539.72h1.5a2.25 2.25 0 0 0-1.617-2.16zm-3.04-.18.489.57a.75.75 0 0 1 .7-.151l.21-.72.212-.72a2.25 2.25 0 0 0-2.1.453zm-3.46 2.974-.49-.57a.75.75 0 0 1-.488.182v1.5a2.25 2.25 0 0 0 1.466-.543zm4.382-3.334.53-.53-1.51-1.511-.531.53-.53.53 1.51 1.511zM14.086 5.5v-.75H12v1.5h2.086zm.707.293.53-.53a1.75 1.75 0 0 0-1.237-.513v1.5a.25.25 0 0 1 .177.073zm-8.16 7.978.649.375 1.515-2.624-.65-.375-.65-.375-1.514 2.624zM17 14l.65-.375-1.516-2.626-.65.375-.65.375 1.517 2.626zM3.717 10.343l.712.235.587-1.778-.713-.235-.712-.235-.587 1.778zm.586-1.778.713.235c.28-.847 1.468-.871 1.782-.036L7.5 8.5l.702-.264c-.811-2.16-3.888-2.097-4.61.094zM4.191 11v-.75a.25.25 0 0 1 .238.328l-.712-.235-.713-.235a1.25 1.25 0 0 0 1.187 1.642z"/></svg>