<svg xmlns="http://www.w3.org/2000/svg" width="24" height="24" fill="none" viewBox="0 0 24 24"><path stroke="currentColor" stroke-linecap="round" stroke-width="1.5" d="M3.75 10.125v7.5c0 1.5 0 1.5 1.5 1.5h13.5c1.5 0 1.5 0 1.5-1.5v-7.5m-16.5 0v-.75c0-1.5 0-1.5 1.5-1.5h13.5c1.5 0 1.5 0 1.5 1.5v.75m-16.5 0c0 2.25 1.5 3.75 3.75 3.75h2.625m0 0v-.75Q10.125 12 11.25 12h1.5q1.125 0 1.125 1.125v.75m-3.75 0v.75q0 1.125 1.125 1.125h1.5q1.125 0 1.125-1.125v-.75m0 0h3.375c1.5 0 3-1.5 3-3.75M8.625 7.875V6q0-1.125 1.125-1.125h4.5q1.125 0 1.125 1.125v1.875"/></svg>