<svg xmlns="http://www.w3.org/2000/svg" width="24" height="24" fill="none" viewBox="0 0 24 24"><path stroke="currentColor" stroke-linecap="round" stroke-linejoin="round" stroke-width="1.5" d="M14.25 20.25H3.75A.75.75 0 0 1 3 19.5v-15a.75.75 0 0 1 .75-.75h16.5a.75.75 0 0 1 .75.75v9m-2.786 3.964L21 20.25m-2.786-2.786-1.339 2.786L15 14.625l6 1.5zm-5.839-1.526H8.719v-4.376H6.75l.762-2.754c.053-.215.17-.404.336-.54a.9.9 0 0 1 .575-.206h2.083c0 .4.148.782.413 1.065s.623.44.998.44c.374 0 .733-.158.997-.44.265-.283.414-.665.414-1.065h2.085a.9.9 0 0 1 .575.207c.165.135.283.324.336.539l.926 2.755h-1.875"/></svg>