<svg xmlns="http://www.w3.org/2000/svg" width="24" height="24" fill="none" viewBox="0 0 24 24"><path fill="currentColor" d="M2.25 18.75a.75.75 0 1 0 0 1.5zm19.644 1.5a.75.75 0 0 0 0-1.5zm-6.63-.75a.75.75 0 0 0 1.5 0zm-3.639 0a.75.75 0 0 0 1.5 0zM7.5 10.37l-.525-.534a.75.75 0 0 0-.225.535zm-.75 9.13a.75.75 0 0 0 1.5 0zm13.18 0a.75.75 0 1 0 1.5 0zm1.5-9a.75.75 0 0 0-1.5 0zm-7.609-6.336.526.535.005-.005.005-.006zm.429-.182v-.75zm.429.182.545-.516-.009-.008zm6.67 8.132a.75.75 0 0 0 1.09-1.031zM4.125 18.75a.75.75 0 0 0 1.5 0zM7.5 15v.75a.75.75 0 0 0 .718-.968zm4.875-4.5a.75.75 0 1 0 0 1.5zm3.75 1.5a.75.75 0 0 0 0-1.5zM2.309 14.806l-.718-.218zm2.422-7.96-.717-.218zm.288 0 .717-.218zM2.25 19.5v.75h19.644v-1.5H2.25zm13.763 0h.75v-4.806h-1.5V19.5zm-.15-4.956v-.75h-3.338v1.5h3.338zm-3.488.15h-.75V19.5h1.5v-4.806zM7.5 10.37h-.75v9.13h1.5v-9.13zm13.18 9.13h.75v-9h-1.5v9zM7.5 10.37l.525.536 6.322-6.207-.526-.535-.525-.535-6.321 6.207zm6.321-6.206.536.524a.14.14 0 0 1-.047.032l-.292-.69-.293-.691c-.165.07-.315.172-.44.3zm.197-.135.292.691a.2.2 0 0 1-.06.012v-1.5c-.18 0-.359.037-.525.107zm.232-.047v.75a.2.2 0 0 1-.06-.012l.292-.69.293-.691a1.4 1.4 0 0 0-.525-.107zm.232.047-.292.691a.14.14 0 0 1-.047-.032l.536-.524.536-.524a1.4 1.4 0 0 0-.44-.301zm.197.135-.545.516 7.215 7.616.545-.516.544-.515-7.214-7.617zM4.875 15h-.75v3.75h1.5V15zm-.144-8.154-.717-.218-2.423 7.96.718.218.717.219 2.423-7.96zM2.452 15v.75h2.423v-1.5H2.452zM7.5 15l.718-.218-2.482-8.154-.717.218-.718.219 2.481 8.153zm-2.625 0v.75H7.5v-1.5H4.875zm7.5-3.75V12h3.75v-1.5h-3.75zM2.309 14.806l-.718-.218a.9.9 0 0 0 .861 1.162v-1.5a.6.6 0 0 1 .574.775zm2.422-7.96.718.219c-.173.567-.975.567-1.148 0l.718-.219.717-.218c-.259-.85-1.463-.85-1.722 0zm7.794 7.698v-.75a.9.9 0 0 0-.9.9h1.5a.6.6 0 0 1-.6.6zm3.488.15h.75a.9.9 0 0 0-.9-.9v1.5a.6.6 0 0 1-.6-.6z"/></svg>