<svg xmlns="http://www.w3.org/2000/svg" width="24" height="24" fill="none" viewBox="0 0 24 24"><path fill="currentColor" d="M4 17.5v-.75zM4 5v-.75zm14.053 0v.75zm1.423 1.026.711-.237zm.947 2.841-.711.237zM22 18.25a.75.75 0 0 0 0-1.5zM17.5 9h-.75zM13 9h.75zm5.25 10.5a.75.75 0 0 0 1.5 0zM9 17.5h-.75c0 .69-.56 1.25-1.25 1.25v1.5a2.75 2.75 0 0 0 2.75-2.75zm-2 2v-.75c-.69 0-1.25-.56-1.25-1.25h-1.5A2.75 2.75 0 0 0 7 20.25zm-2-2h.75c0-.69.56-1.25 1.25-1.25v-1.5a2.75 2.75 0 0 0-2.75 2.75zm2-2v.75c.69 0 1.25.56 1.25 1.25h1.5A2.75 2.75 0 0 0 7 14.75zm-2 2v-.75H4v1.5h1zM2.5 16h.75V6.5h-1.5V16zM4 5v.75h14.053v-1.5H4zm15.476 1.026-.712.237.948 2.841.711-.237.712-.237-.948-2.842zM20.5 9.342h-.75V17.5h1.5V9.342zM22 17.5v-.75h-1.5v1.5H22zm-1.5 0v-.75H9v1.5h11.5zm-.077-8.633-.711.237a.8.8 0 0 1 .038.238h1.5a2.3 2.3 0 0 0-.116-.712zM18.053 5v.75a.75.75 0 0 1 .711.513l.712-.237.711-.237a2.25 2.25 0 0 0-2.134-1.539zM2.5 6.5h.75A.75.75 0 0 1 4 5.75v-1.5A2.25 2.25 0 0 0 1.75 6.5zm1.5 11v-.75a.75.75 0 0 1-.75-.75h-1.5A2.25 2.25 0 0 0 4 18.25zM6 8v.75h3.5v-1.5H6zm4.5 1h-.75v2.5h1.5V9zm-1 3.5v-.75H6v1.5h3.5zm-4.5-1h.75V9h-1.5v2.5zm1 1v-.75a.25.25 0 0 1-.25-.25h-1.5c0 .966.784 1.75 1.75 1.75zm4.5-1h-.75a.25.25 0 0 1-.25.25v1.5a1.75 1.75 0 0 0 1.75-1.75zM9.5 8v.75a.25.25 0 0 1 .25.25h1.5A1.75 1.75 0 0 0 9.5 7.25zM6 8v-.75A1.75 1.75 0 0 0 4.25 9h1.5A.25.25 0 0 1 6 8.75zm8 0v.75h2.5v-1.5H14zm3.5 1h-.75v8.5h1.5V9zM13 17.5h.75V9h-1.5v8.5zm6 2h.75v-2h-1.5v2zM16.5 8v.75a.25.25 0 0 1 .25.25h1.5a1.75 1.75 0 0 0-1.75-1.75zM14 8v-.75A1.75 1.75 0 0 0 12.25 9h1.5a.25.25 0 0 1 .25-.25z"/></svg>