<svg xmlns="http://www.w3.org/2000/svg" width="24" height="24" fill="none" viewBox="0 0 24 24"><path fill="currentColor" d="m21.75 10.5.67-.335a.75.75 0 0 1 .08.335zm0-5.25a.75.75 0 0 1 0 1.5zM9.75 6l-.624-.416a.75.75 0 0 1 .624-.334zM4.5 10.5v.75c-1.3 0-1.5.6-1.5.75H1.5c0-1.35 1.3-2.25 3-2.25zM2.25 12H3v2.25H1.5V12zm0 2.25H3c0 .131.073.325.25.5.175.177.369.25.5.25v1.5c-.619 0-1.175-.302-1.562-.688-.386-.387-.688-.943-.688-1.562zm19.5-3.75-.67.335-2.25-4.5L19.5 6l.67-.335 2.25 4.5zm0 0v.75h-15v-1.5h15zm-15 0v.75H4.5v-1.5h2.25zM19.5 6v.75H9.75v-1.5h9.75zM9.75 6l.624.416-3 4.5-.624-.416-.624-.416 3-4.5zm12 4.5h.75v3.75H21V10.5zm0 3.75h.75c0 .619-.302 1.175-.688 1.562-.387.386-.943.688-1.562.688V15c.131 0 .325-.073.5-.25.177-.175.25-.369.25-.5zm-1.5 1.5v.75h-1.125V15h1.125zm-16.5 0V15h1.125v1.5H3.75zm10.875 0v.75h-5.25V15h5.25zm-9.375.375H6c0 .621.504 1.125 1.125 1.125v1.5A2.625 2.625 0 0 1 4.5 16.125zM7.125 18v-.75c.621 0 1.125-.504 1.125-1.125h1.5a2.625 2.625 0 0 1-2.625 2.625zM9 16.125h-.75c0-.621-.504-1.125-1.125-1.125v-1.5a2.625 2.625 0 0 1 2.625 2.625zM7.125 14.25V15C6.504 15 6 15.504 6 16.125H4.5A2.625 2.625 0 0 1 7.125 13.5zM15 16.125h.75c0 .621.504 1.125 1.125 1.125v1.5a2.625 2.625 0 0 1-2.625-2.625zM16.875 18v-.75c.621 0 1.125-.504 1.125-1.125h1.5a2.625 2.625 0 0 1-2.625 2.625zm1.875-1.875H18c0-.621-.504-1.125-1.125-1.125v-1.5a2.625 2.625 0 0 1 2.625 2.625zm-1.875-1.875V15c-.621 0-1.125.504-1.125 1.125h-1.5a2.625 2.625 0 0 1 2.625-2.625zM19.5 6v-.75h2.25v1.5H19.5zm-3.75 0h.75v4.5H15V6z"/></svg>