<svg xmlns="http://www.w3.org/2000/svg" width="24" height="24" fill="none" viewBox="0 0 24 24"><path stroke="currentColor" stroke-linecap="round" stroke-linejoin="round" stroke-width="1.5" d="M9 16.875H6.75v2.25a.75.75 0 0 1-.75.75H3.75a.75.75 0 0 1-.75-.75v-8.25m3 3h1.5m12-5.625-1.302-3.68a.75.75 0 0 0-.686-.445H6.489a.75.75 0 0 0-.686.445L3 10.875m0 0h7.5m7.86 4.497a1.862 1.862 0 1 1-3.723 0 1.862 1.862 0 0 1 3.723 0m-5.891 2.331a4.6 4.6 0 0 1-.469-1.13l.781-.977q-.013-.225 0-.449l-.78-.977c.105-.396.262-.776.467-1.131l1.243-.14q.15-.167.317-.316l.14-1.243c.354-.204.734-.36 1.13-.465l.977.78q.225-.012.448 0l.978-.78c.396.106.776.263 1.13.468l.14 1.243q.168.15.317.317l1.243.14c.206.354.364.734.469 1.13l-.781.977q.014.225 0 .45l.78.976c-.104.396-.26.776-.465 1.131l-1.243.14q-.15.167-.317.317l-.14 1.242a4.6 4.6 0 0 1-1.13.469l-.978-.78q-.225.012-.448 0l-.978.78a4.6 4.6 0 0 1-1.131-.466l-.14-1.243a4 4 0 0 1-.317-.317z"/></svg>