<svg xmlns="http://www.w3.org/2000/svg" width="24" height="24" fill="none" viewBox="0 0 24 24"><path fill="currentColor" d="M12 2.25A9.75 9.75 0 0 1 21.75 12a9.72 9.72 0 0 1-3.202 7.22v.002c-1.286 1.304-3.165 2.166-5.185 2.433l-.014.001a9.8 9.8 0 0 1-4.245-.343q-.018-.008-.038-.013a9.5 9.5 0 0 1-3.535-2.004l-.003-.003-.051-.048-.004-.004A9.73 9.73 0 0 1 2.25 12 9.75 9.75 0 0 1 12 2.25m0 13.5c-1.078.026-2.25.337-3.139.883a6 6 0 0 0-1.915 1.886 8.2 8.2 0 0 0 2.605 1.36 8.6 8.6 0 0 0 3.615.289 8.2 8.2 0 0 0 3.888-1.648 6 6 0 0 0-1.915-1.887c-.891-.547-2.06-.858-3.139-.883m0-9c-1.9 0-3.456 1.561-3.456 3.506a3.3 3.3 0 0 0 .165 1.031c.36 1.095 1.29 1.978 2.423 2.322.702.093 1.093.102 1.726.003 1.481-.444 2.597-1.8 2.597-3.356C15.455 8.31 13.9 6.75 12 6.75"/></svg>