<svg xmlns="http://www.w3.org/2000/svg" width="24" height="24" fill="none" viewBox="0 0 24 24"><path fill="currentColor" d="m16.125 12 .398.636a.75.75 0 0 0 0-1.272zm-6-3.75.398-.636a.75.75 0 0 0-1.148.636zm0 7.5h-.75a.75.75 0 0 0 1.148.636zM21 12h-.75A8.25 8.25 0 0 1 12 20.25v1.5A9.75 9.75 0 0 0 21.75 12zm-9 9v-.75A8.25 8.25 0 0 1 3.75 12h-1.5A9.75 9.75 0 0 0 12 21.75zm-9-9h.75A8.25 8.25 0 0 1 12 3.75v-1.5A9.75 9.75 0 0 0 2.25 12zm9-9v.75A8.25 8.25 0 0 1 20.25 12h1.5A9.75 9.75 0 0 0 12 2.25zm4.125 9 .398-.636-6-3.75-.398.636-.398.636 6 3.75zm-6-3.75h-.75v7.5h1.5v-7.5zm0 7.5.398.636 6-3.75-.398-.636-.398-.636-6 3.75z"/></svg>