<svg xmlns="http://www.w3.org/2000/svg" width="24" height="24" viewBox="0 0 24 24" fill="none"><path d="M9.42783 8.52632C9.42783 7.8563 9.69878 7.21372 10.1811 6.73994C10.6634 6.26616 11.3175 6 11.9996 6C12.6817 6 13.3358 6.26616 13.8181 6.73994C14.3004 7.21372 14.5714 7.8563 14.5714 8.52632L3.25718 16.8632C3.14933 16.9426 3.06964 17.0534 3.02937 17.1797C2.98909 17.3061 2.99027 17.4417 3.03274 17.5674C3.07521 17.6931 3.15682 17.8025 3.26603 17.8801C3.37524 17.9577 3.50653 17.9997 3.64134 18H20.3579C20.4927 17.9998 20.6241 17.958 20.7335 17.8804C20.8428 17.8029 20.9246 17.6935 20.9671 17.5678C21.0097 17.4421 21.0109 17.3064 20.9707 17.1799C20.9304 17.0535 20.8507 16.9427 20.7428 16.8632L11.9996 10.4211" stroke="currentColor" stroke-width="1.5" stroke-linecap="round" stroke-linejoin="round"/></svg>