<svg xmlns="http://www.w3.org/2000/svg" width="24" height="24" fill="none" viewBox="0 0 24 24"><path stroke="currentColor" stroke-linecap="round" stroke-linejoin="round" stroke-width="1.5" d="M12 15.75a3.75 3.75 0 1 0 0-7.5 3.75 3.75 0 0 0 0 7.5"/><path stroke="currentColor" stroke-linecap="round" stroke-linejoin="round" stroke-width="1.5" d="M3.884 16.696a9.3 9.3 0 0 1-.944-2.277l1.573-1.97a8 8 0 0 1 0-.903L2.941 9.577A9.3 9.3 0 0 1 3.883 7.3l2.504-.28q.3-.34.639-.64l.28-2.502a9.3 9.3 0 0 1 2.275-.937l1.969 1.573q.451-.027.904 0l1.968-1.572a9.3 9.3 0 0 1 2.279.942l.28 2.504q.34.3.64.639l2.502.28c.415.715.732 1.48.944 2.278l-1.573 1.969q.027.45 0 .903l1.573 1.97a9.3 9.3 0 0 1-.938 2.277l-2.504.282q-.3.338-.639.638l-.28 2.503a9.3 9.3 0 0 1-2.278.944l-1.969-1.573a8 8 0 0 1-.903 0l-1.97 1.572a9.3 9.3 0 0 1-2.277-.937l-.282-2.504a8 8 0 0 1-.638-.639z"/></svg>