<svg xmlns="http://www.w3.org/2000/svg" width="24" height="24" fill="none" viewBox="0 0 24 24"><path stroke="currentColor" stroke-linecap="round" stroke-linejoin="round" stroke-width="1.5" d="M7.5 3.75v16.5m3-16.5v5.463c-.003.644-.399 1.26-1.102 1.715-.702.455-.904.711-1.898.713-.994-.002-1.196-.258-1.898-.713-.703-.455-1.099-1.071-1.102-1.715V3.75m15 11V4.3a.47.47 0 0 0-.152-.329.8.8 0 0 0-.39-.198 1 1 0 0 0-.474.01.76.76 0 0 0-.371.217c-2.777 3.18-3.701 6.49-3.862 9.65a.8.8 0 0 0 .099.427c.072.136.183.26.323.363s.31.184.495.237.383.078.582.072zm0 0v5.5"/></svg>