<svg xmlns="http://www.w3.org/2000/svg" width="24" height="24" fill="none" viewBox="0 0 24 24"><path stroke="currentColor" stroke-linecap="round" stroke-linejoin="round" stroke-width="1.5" d="m8.538 15.462 6.923-6.924m-9.825 9.826c-.796-.796-.268-2.469-.673-3.449C4.543 13.905 3 13.083 3 12s1.542-1.904 1.963-2.915c.405-.98-.123-2.653.673-3.449s2.47-.268 3.449-.673C10.1 4.543 10.918 3 12 3s1.904 1.542 2.915 1.963c.98.405 2.653-.123 3.449.673s.268 2.469.673 3.449C19.457 10.1 21 10.918 21 12s-1.542 1.904-1.963 2.915c-.405.98.123 2.653-.673 3.449s-2.469.268-3.449.673C13.905 19.457 13.083 21 12 21s-1.904-1.542-2.915-1.963c-.98-.405-2.653.123-3.449-.673m4.98-9.133a1.385 1.385 0 1 1-2.77 0 1.385 1.385 0 0 1 2.77 0m5.538 5.538a1.385 1.385 0 1 1-2.77 0 1.385 1.385 0 0 1 2.77 0"/></svg>