<svg xmlns="http://www.w3.org/2000/svg" width="24" height="24" fill="none" viewBox="0 0 24 24"><path fill="currentColor" d="M15.75 9a.75.75 0 0 0 0-1.5zM9 12.75a.75.75 0 0 0 0 1.5zm6 1.5a.75.75 0 0 0 0-1.5zM21 12h-.75A8.25 8.25 0 0 1 12 20.25v1.5A9.75 9.75 0 0 0 21.75 12zm-9 9v-.75A8.25 8.25 0 0 1 3.75 12h-1.5A9.75 9.75 0 0 0 12 21.75zm-9-9h.75A8.25 8.25 0 0 1 12 3.75v-1.5A9.75 9.75 0 0 0 2.25 12zm9-9v.75A8.25 8.25 0 0 1 20.25 12h1.5A9.75 9.75 0 0 0 12 2.25zm0 18h.75v-7.5h-1.5V21zm0-7.5h.75v-3h-1.5v3zm0-3h.75c0-.403.135-.78.373-1.049.226-.254.58-.451 1.127-.451V7.5c-.953 0-1.724.365-2.248.955-.512.576-.752 1.323-.752 2.045zm2.25-2.25V9h1.5V7.5h-1.5zM9 13.5v.75h3v-1.5H9zm3 0v.75h3v-1.5h-3z"/></svg>