<svg xmlns="http://www.w3.org/2000/svg" width="24" height="24" fill="none" viewBox="0 0 24 24"><path stroke="currentColor" stroke-linecap="round" stroke-linejoin="round" stroke-width="1.5" d="M13.929 9.713h1.928m-8.357 0h2.571M8.786 8.438v2.55m4.99 2.55 3.383 3.809a2.27 2.27 0 0 0 2.63.401 2.24 2.24 0 0 0 .979-.992 2.22 2.22 0 0 0 .198-1.374L19.65 8.677m-9.426 4.86-3.384 3.81a2.27 2.27 0 0 1-2.63.401 2.24 2.24 0 0 1-.979-.992 2.2 2.2 0 0 1-.198-1.374L4.35 8.677a4.14 4.14 0 0 1 1.425-2.454 4.2 4.2 0 0 1 2.681-.973h7.08c1.11 0 2.172.437 2.956 1.214a4.13 4.13 0 0 1 1.224 2.93c0 1.099-.44 2.153-1.224 2.93a4.2 4.2 0 0 1-2.955 1.214z"/></svg>