<svg xmlns="http://www.w3.org/2000/svg" width="24" height="24" fill="none" viewBox="0 0 24 24"><path fill="currentColor" d="M12 2.25a.75.75 0 0 0 0 1.5zm-8.903 8.422.742.11zM9 13.5h-.75zm3-6 .617-.426a.75.75 0 0 0-1.234 0zm-4.844-.043.629.409zM3.385 5l-.629-.409zm1.228-1.885.409-.629a.75.75 0 0 0-1.038.22zm3.77 2.455.63.41a.75.75 0 0 0-.22-1.039zM4.868 3.256a.75.75 0 1 0 1.257.819zm2.414-.96a.75.75 0 0 0-1.257-.817zM7.09 4.704a.75.75 0 1 0 1.257.818zm2.414-.96a.75.75 0 1 0-1.257-.818zM21 12h-.75A8.25 8.25 0 0 1 12 20.25v1.5A9.75 9.75 0 0 0 21.75 12zm-9 9v-.75A8.25 8.25 0 0 1 3.75 12h-1.5A9.75 9.75 0 0 0 12 21.75zm0-18v.75A8.25 8.25 0 0 1 20.25 12h1.5A9.75 9.75 0 0 0 12 2.25zm-9 9h.75q0-.622.09-1.218l-.743-.11-.742-.11Q2.25 11.268 2.25 12zm.097-1.328.742.11c.123-.834.442-1.477.873-2.328l-.669-.34-.669-.338c-.423.835-.855 1.68-1.019 2.786zM15 13.5h-.75a2.25 2.25 0 0 1-.659 1.59l.53.531.53.53A3.75 3.75 0 0 0 15.75 13.5zm-.879 2.121-.53-.53A2.25 2.25 0 0 1 12 15.75v1.5a3.75 3.75 0 0 0 2.652-1.098zM12 16.5v-.75a2.25 2.25 0 0 1-1.591-.66l-.53.531-.53.53A3.75 3.75 0 0 0 12 17.25zm-2.121-.879.53-.53A2.25 2.25 0 0 1 9.75 13.5h-1.5a3.75 3.75 0 0 0 1.098 2.652zM9 13.5h.75c0-.244.126-.7.405-1.335a20 20 0 0 1 .994-1.91 39 39 0 0 1 1.46-2.318l.007-.009v-.001h.001L12 7.5l-.617-.426-.003.004-.007.01-.026.039a31 31 0 0 0-.445.669 41 41 0 0 0-1.05 1.706 22 22 0 0 0-1.07 2.06c-.283.645-.532 1.353-.532 1.938zm3-6-.617.426q0 .002.002.002l.005.009a5 5 0 0 1 .117.171c.08.12.195.292.333.505.277.426.644 1.01 1.011 1.642.368.635.728 1.306.994 1.91.278.635.405 1.091.405 1.335h1.5c0-.585-.248-1.293-.532-1.938a22 22 0 0 0-1.07-2.06 40 40 0 0 0-1.495-2.375l-.026-.039-.007-.01-.002-.003v-.001zm-4.844-.043-.628-.41a1.5 1.5 0 0 1-.947.65l.155.733.155.734a3 3 0 0 0 1.894-1.298zm-1.42.973-.155-.733a1.5 1.5 0 0 1-1.129-.21l-.409.628-.41.628a3 3 0 0 0 2.258.421zm-1.693-.315.41-.629a1.5 1.5 0 0 1-.65-.947l-.734.155-.734.155a3 3 0 0 0 1.299 1.894zm-.974-1.42.734-.156a1.5 1.5 0 0 1 .21-1.128L3.386 5l-.629-.409a3 3 0 0 0-.42 2.257zM3.385 5l.629.41L5.24 3.525l-.628-.41-.629-.408-1.228 1.885zm1.228-1.885-.41.628L7.975 6.2l.409-.629.409-.629-3.771-2.455zm3.77 2.455-.628-.41-1.227 1.886.628.41.629.409L9.012 5.98zM5.496 3.665l.629.41L7.28 2.297l-.628-.41-.629-.409-1.157 1.778zm2.223 1.447.628.41 1.157-1.778-.628-.41-.629-.409L7.09 4.703z"/></svg>