<svg xmlns="http://www.w3.org/2000/svg" width="24" height="24" fill="none" viewBox="0 0 24 24"><path stroke="currentColor" stroke-linecap="round" stroke-linejoin="round" stroke-width="1.5" d="M9.138 3.75H4.424a.674.674 0 0 0-.674.674v4.714c0 .372.302.674.674.674h4.714a.674.674 0 0 0 .674-.674V4.424a.674.674 0 0 0-.674-.674m7.746 6.062a3.03 3.03 0 1 0 0-6.062 3.03 3.03 0 0 0 0 6.062m.36 4.189a.598.598 0 0 0-1.06 0l-2.92 5.259a.69.69 0 0 0-.005.657.61.61 0 0 0 .534.33h5.842a.61.61 0 0 0 .534-.33.69.69 0 0 0-.005-.658zm-10.058-.633a.524.524 0 0 0-.808 0l-2.5 2.988a.56.56 0 0 0 0 .713l2.498 2.988a.523.523 0 0 0 .808 0l2.498-2.988a.56.56 0 0 0 0-.713z"/></svg>