<svg xmlns="http://www.w3.org/2000/svg" width="24" height="24" fill="none" viewBox="0 0 24 24"><path stroke="currentColor" stroke-linecap="round" stroke-linejoin="round" stroke-width="1.5" d="m18.75 21.75-2.94-7.74M5.25 21.75l2.94-7.74m9.57 5.138H6.239M16.96 6.909l.146-.187a1.34 1.34 0 0 0-.219-1.889 1.34 1.34 0 0 1-.218-1.889l.54-.693M11.683 6.91l.146-.187a1.34 1.34 0 0 0-.219-1.889 1.34 1.34 0 0 1-.218-1.889l.54-.692M6.284 6.909l.146-.187a1.34 1.34 0 0 0-.22-1.889 1.34 1.34 0 0 1-.218-1.889l.541-.694m10.53 7.138c.15-.001.3.03.438.09q.207.094.355.264a.95.95 0 0 1 .218.817 5.96 5.96 0 0 1-2.174 3.378 6.36 6.36 0 0 1-3.89 1.32 6.36 6.36 0 0 1-3.89-1.32 5.96 5.96 0 0 1-2.174-3.378.95.95 0 0 1 .218-.818c.097-.113.22-.202.357-.263.138-.061.288-.092.44-.09z"/></svg>