<svg xmlns="http://www.w3.org/2000/svg" width="24" height="24" fill="none" viewBox="0 0 24 24"><path fill="currentColor" d="M6 19.5v.75zm0-4v-.75zm2 2h-.75zm5 .75a.75.75 0 0 0 0-1.5zm7.132-3.02.65-.372zM22 18.5v.75a.75.75 0 0 0 .651-1.122zm-4.5-.75a.75.75 0 0 0 0 1.5zm-15-3.083h-.75zm.2.6.6-.45zm.747 2.248a.75.75 0 0 0 1.201-.899l-.6.45zM21 5l.721.206A.75.75 0 0 0 21 4.25zm-.962 3.365.722.206zM14.484 5v-.75h-.75V5zm-3.699 4.06-.345-.666zm-2.568 1.328-.345-.666zM2.5 11.431h.75zM6 6.5v-.75a.75.75 0 0 0-.53.22zm-1.53.47a.75.75 0 1 0 1.06 1.06L5 7.5zM6 19.5v-.75a1.25 1.25 0 0 1-.884-.366l-.53.53-.53.53A2.75 2.75 0 0 0 6 20.25zm-1.414-.586.53-.53a1.25 1.25 0 0 1-.366-.884h-1.5c0 .73.29 1.429.805 1.945zM4 17.5h.75c0-.331.132-.65.366-.884l-.53-.53-.53-.53A2.75 2.75 0 0 0 3.25 17.5zm.586-1.414.53.53A1.25 1.25 0 0 1 6 16.25v-1.5c-.73 0-1.429.29-1.945.806zM6 15.5v.75c.332 0 .65.132.884.366l.53-.53.53-.53A2.75 2.75 0 0 0 6 14.75zm1.414.586-.53.53c.234.235.366.553.366.884h1.5c0-.73-.29-1.429-.805-1.944zM8 17.5h-.75c0 .331-.132.65-.366.884l.53.53.53.53A2.75 2.75 0 0 0 8.75 17.5zm-.586 1.414-.53-.53A1.25 1.25 0 0 1 6 18.75v1.5c.73 0 1.429-.29 1.945-.805zM8 17.5v.75h5v-1.5H8zM20 12h-.75v2.734h1.5V12zm.132 3.23-.651.373 1.868 3.27L22 18.5l.651-.372-1.868-3.27zM22 18.5v-.75h-4.5v1.5H22zM2.7 15.267l-.6.45 1.347 1.798.6-.45.601-.449L3.3 14.817zm-.2-.6h-.75c0 .378.123.747.35 1.05l.6-.45.6-.45a.25.25 0 0 1-.05-.15zm17.5.067h-.75c0 .305.08.604.23.869l.652-.372.65-.373a.25.25 0 0 1-.032-.124zM21 5l-.721-.206-.962 3.365.721.206.722.206.961-3.365zm-6.517 0v.75H21v-1.5h-6.517zm0 0h-.75v6h1.5V5zM20 8.64h-.75V12h1.5V8.64zM15.483 12v.75H20v-1.5h-4.517zm-1-1h-.75c0 .966.783 1.75 1.75 1.75v-1.5a.25.25 0 0 1-.25-.25zm5.555-2.635-.72-.206a1.8 1.8 0 0 0-.068.481h1.5a.3.3 0 0 1 .01-.069zm-5.538.583v-.75h-3.257v1.5H14.5zm-3.716.112-.345-.666-2.568 1.328.345.666.345.666 2.568-1.328zM7.757 10.5v-.75H3.43v1.5h4.326zm-4.326 0v-.75a1.68 1.68 0 0 0-1.68 1.68h1.5c0-.1.08-.18.18-.18zm4.785-.112-.345-.666a.25.25 0 0 1-.114.028v1.5c.28 0 .555-.067.804-.196zm3.027-1.44v-.75c-.28 0-.555.067-.804.196l.345.666.345.666a.25.25 0 0 1 .114-.028zM6 6.5l-.53-.53-1 1L5 7.5l.53.53 1-1zm0 0v.75h8.5v-1.5H6zM13 17h-.75a3.25 3.25 0 0 0 3.25 3.25v-1.5A1.75 1.75 0 0 1 13.75 17zm2.5 2.5v.75A3.25 3.25 0 0 0 18.75 17h-1.5a1.75 1.75 0 0 1-1.75 1.75zM18 17h.75a3.25 3.25 0 0 0-3.25-3.25v1.5c.966 0 1.75.784 1.75 1.75zm-2.5-2.5v-.75A3.25 3.25 0 0 0 12.25 17h1.5c0-.966.784-1.75 1.75-1.75zm-13-3.07h-.75v3.237h1.5V11.43z"/></svg>