<svg xmlns="http://www.w3.org/2000/svg" width="24" height="24" fill="none" viewBox="0 0 24 24"><path fill="currentColor" d="M19.125 19.875a.75.75 0 0 0-1.5 0zm-14.25 0a.75.75 0 0 0 0-1.5zm6.375.375a.75.75 0 0 0 0 1.5zm.75-6v-.75a.75.75 0 0 0-.53.22zM4.5 12A.75.75 0 0 0 3 12zm3.375 2.25V15a.75.75 0 0 0 .505-.195zM12 10.5l.505.555A.75.75 0 0 0 12 9.75zm-4.5 0-.416.624a.75.75 0 0 0 .416.126zm0-2.625v-.75a.75.75 0 0 0-.416.126zm8.25 2.25.53.53a.75.75 0 0 0 .22-.53zm-2.25 2.25-.53-.53a.75.75 0 0 0 .08 1.13zm6.75-7.125h-.75a1.5 1.5 0 0 1-1.5 1.5v1.5a3 3 0 0 0 3-3zM18 7.5v-.75a1.5 1.5 0 0 1-1.5-1.5H15a3 3 0 0 0 3 3zm-2.25-2.25h.75a1.5 1.5 0 0 1 1.5-1.5v-1.5a3 3 0 0 0-3 3zM18 3v.75a1.5 1.5 0 0 1 1.5 1.5H21a3 3 0 0 0-3-3zm-.75 18v.75c.49 0 .996-.123 1.374-.5.378-.379.501-.884.501-1.375h-1.5a.8.8 0 0 1-.032.255c-.014.043-.027.056-.03.058s-.015.016-.058.03a.8.8 0 0 1-.255.032zm-13.5-3H3c0 .49.123.996.5 1.374.379.378.884.501 1.375.501v-1.5a.8.8 0 0 1-.255-.032c-.043-.014-.056-.027-.058-.03s-.016-.015-.03-.058A.8.8 0 0 1 4.5 18zm7.5 3v.75h2.25v-1.5h-2.25zm2.25-5.25h.75c0-.211-.072-.39-.121-.492a2.3 2.3 0 0 0-.197-.332 5 5 0 0 0-.511-.597 5 5 0 0 0-.597-.51 2 2 0 0 0-.332-.198A1.2 1.2 0 0 0 12 13.5V15c-.118 0-.178-.037-.148-.023a1 1 0 0 1 .109.068c.114.08.257.202.4.345.142.142.264.285.344.399q.058.086.068.11c.014.03-.023-.031-.023-.149zm-1.5-1.5-.53-.53c-.377.376-1 .997-1.701 1.524-.737.553-1.408.881-1.894.881v1.5c1.014 0 2.03-.61 2.794-1.181.798-.599 1.488-1.29 1.861-1.664zm-8.25 2.625H3V18h1.5v-1.125zm4.125 0v-.75H6v1.5h1.875zm-1.875 0v-.75H3.75v1.5H6zm0 0h.75V14.25h-1.5v2.625zM3.75 12H3v2.25h1.5V12zm0 2.25H3v2.625h1.5V14.25zm2.25 0v-.75H3.75V15H6zm0 0V15h1.875v-1.5H6zm1.875 0 .505.555 4.124-3.75L12 10.5l-.505-.555-4.124 3.75zM12 10.5v-.75H7.5v1.5H12zm-4.5 0 .416-.624c-.426-.284-.51-.547-.51-.688 0-.142.084-.405.51-.689L7.5 7.875l-.416-.624c-.699.466-1.178 1.141-1.178 1.936 0 .796.48 1.471 1.178 1.937zm0-2.625v.75h5.25v-1.5H7.5zm5.25 0v.75c.13 0 .347.048.632.178.275.126.566.305.833.51.268.206.489.422.635.607.172.22.15.283.15.205h1.5c0-.453-.256-.859-.47-1.131a5.2 5.2 0 0 0-.9-.87 6 6 0 0 0-1.125-.685c-.383-.175-.823-.314-1.255-.314zm3 2.25-.53-.53-2.25 2.25.53.53.53.53 2.25-2.25zm-2.25 2.25-.45.6a6 6 0 0 1 1.499 1.621c.342.556.451.978.451 1.154h1.5c0-.574-.266-1.277-.674-1.94a7.5 7.5 0 0 0-1.876-2.035zm0 8.625v.75h2.25v-1.5H13.5zm2.25 0v.75h1.5v-1.5h-1.5zm-2.25 0h.75v-2.25h-1.5V21zm0-2.25h.75v-3h-1.5v3zm2.25-3H15v3h1.5v-3zm0 3H15V21h1.5v-2.25zm-2.25 0v.75h2.25V18H13.5z"/></svg>