<svg xmlns="http://www.w3.org/2000/svg" width="24" height="24" fill="none" viewBox="0 0 24 24"><path fill="currentColor" d="M12 7.846a4.154 4.154 0 1 0 0 8.307 4.154 4.154 0 0 0 0-8.307m0 6.923a2.77 2.77 0 1 1 0-5.538 2.77 2.77 0 0 1 0 5.538M16.154 3H7.846A4.85 4.85 0 0 0 3 7.846v8.308A4.85 4.85 0 0 0 7.846 21h8.308A4.85 4.85 0 0 0 21 16.154V7.846A4.85 4.85 0 0 0 16.154 3m3.461 13.154a3.46 3.46 0 0 1-3.461 3.461H7.846a3.46 3.46 0 0 1-3.461-3.461V7.846a3.46 3.46 0 0 1 3.461-3.461h8.308a3.46 3.46 0 0 1 3.461 3.461zM17.54 7.5a1.038 1.038 0 1 1-2.076 0 1.038 1.038 0 0 1 2.076 0"/></svg>