<svg xmlns="http://www.w3.org/2000/svg" width="24" height="24" fill="none" viewBox="0 0 24 24"><path stroke="currentColor" stroke-linecap="round" stroke-linejoin="round" stroke-width="1.5" d="M20.25 20.21a3.1 3.1 0 0 1-1.774-.235c-.571-.253-1.093-.671-1.526-1.225a3.6 3.6 0 0 1-1.121 1.077c-.426.251-.888.38-1.354.38s-.928-.129-1.354-.38A3.6 3.6 0 0 1 12 18.75a3.6 3.6 0 0 1-1.121 1.077c-.426.251-.888.38-1.354.38s-.928-.129-1.354-.38A3.6 3.6 0 0 1 7.05 18.75c-.433.554-.955.972-1.526 1.225a3.1 3.1 0 0 1-1.774.234M13.5 6l-2.25 3.75c-2.047.425-5.431.55-7.5 0v4.5L6 15.75l11.25-2.25 3-4.5L18 7.5zm-9.75 8.25 12.75-3L20.25 9M13.5 6l-.75-.75L10.5 6"/></svg>