<svg xmlns="http://www.w3.org/2000/svg" width="24" height="24" fill="none" viewBox="0 0 24 24"><path stroke="currentColor" stroke-linecap="round" stroke-linejoin="round" stroke-width="1.5" d="m13.739 8.474 1.788 1.788m-3.577 4.172c1.291.553 2.084.735 2.735.648q.11-.015.218-.04c.64-.146 2.193-1.73 3.207-2.7l.12-.114c.77-.77 1.154-1.155 1.247-1.94s-.107-1.113-.508-1.77a10.5 10.5 0 0 0-1.547-1.94 10.5 10.5 0 0 0-1.94-1.547c-.657-.401-.985-.602-1.77-.508s-1.17.478-1.94 1.247l-.114.12c-.97 1.014-2.501 2.62-2.648 3.26q-.025.107-.04.218c-.087.65.043 1.39.596 2.682L4.5 17.116V19.5h2.384v-1.49h1.49v-1.59h1.49z"/></svg>