<svg xmlns="http://www.w3.org/2000/svg" width="24" height="24" fill="none" viewBox="0 0 24 24"><path fill="currentColor" d="m19.5 4.5-.182.728.09.022h.092zm-15 0v.75h.092l.09-.022zm-.53.22.53.53zM12 21.75l-.197.724.197.053.197-.053zm3.75-11.625h.75a.75.75 0 0 0-.75-.75zm0 5.625v.75a.75.75 0 0 0 .75-.75zm-7.5 0H7.5a.75.75 0 0 0 .75.75zm0-5.625v-.75a.75.75 0 0 0-.75.75zm3 1.875a.75.75 0 0 0 0 1.5zm1.5 1.5a.75.75 0 0 0 0-1.5zM9.009 9.864a.75.75 0 0 0 1.482-.228l-.741.114zm11.241.636H21V5.25h-1.5v5.25zm0-5.25H21a1.5 1.5 0 0 0-.44-1.06l-.53.53-.53.53zm-.22-.53.53-.53a1.5 1.5 0 0 0-1.06-.44v1.5zm-.53-.22.182-.728C16.656 3.016 14.338 2.625 12 2.625s-4.655.39-7.682 1.147L4.5 4.5l.182.728C7.655 4.484 9.838 4.125 12 4.125s4.345.36 7.318 1.103zm-15 0v-.75a1.5 1.5 0 0 0-1.06.44l.53.53.53.53zm-.53.22-.53-.53A1.5 1.5 0 0 0 3 5.25h1.5zm-.22.53H3v5.25h1.5V5.25zm0 5.25H3c0 4.767 2.2 7.78 4.4 9.58a13.8 13.8 0 0 0 3 1.86 12 12 0 0 0 1.286.499l.081.024.024.007.007.002.003.001c.001 0 .002 0 .199-.723l.198-.724-.013-.003-.056-.017a11 11 0 0 1-1.107-.43 12.3 12.3 0 0 1-2.672-1.657C6.426 17.345 4.5 14.734 4.5 10.5zM12 21.75c.197.724.198.723.198.723h.004l.007-.003.024-.006.081-.025q.104-.032.289-.096c.244-.085.587-.216.996-.402a13.8 13.8 0 0 0 3-1.86C18.802 18.28 21 15.266 21 10.5h-1.5c0 4.233-1.926 6.845-3.85 8.42a12.3 12.3 0 0 1-2.671 1.655 11 11 0 0 1-1.108.43l-.056.018-.012.003H11.8h.001zm3.75-11.625H15v5.625h1.5v-5.625zm0 5.625V15h-7.5v1.5h7.5zm-7.5 0H9v-5.625H7.5v5.625zm3-3v.75h1.5V12h-1.5zm-3-2.625v.75h6v-1.5h-6zm6 0v.75h1.5v-1.5h-1.5zm0 0 .742.106c.207-1.448-.039-2.631-.612-3.484-.575-.854-1.449-1.324-2.353-1.356s-1.796.375-2.388 1.177-.84 1.93-.63 3.296l.741-.114.741-.114c-.165-1.072.055-1.771.355-2.177.298-.405.719-.583 1.127-.569s.846.225 1.162.695c.318.472.54 1.257.373 2.434z"/></svg>