<svg xmlns="http://www.w3.org/2000/svg" width="24" height="24" fill="none" viewBox="0 0 24 24"><path stroke="currentColor" stroke-linecap="round" stroke-linejoin="round" stroke-width="1.5" d="M4.328 11.808c-4.603 10.256 19.948 10.256 15.344 0M7.5 14.25c0 3.75 9 3.75 9 0M12 12.54c-5.37 0-6.905-2.197-6.905-6.592 1.535 0 3.07.732 4.604 1.465M12 12.54c5.37 0 6.905-2.198 6.905-6.593-1.534 0-3.069.732-4.603 1.465M12 12.54c-2.3-2.197-2.3-3.662-2.3-5.127M12 12.54c2.302-2.198 2.302-3.663 2.302-5.128m-4.603 0c0-1.465.767-2.198 2.301-3.663 1.535 1.465 2.302 2.198 2.302 3.663"/></svg>