<svg xmlns="http://www.w3.org/2000/svg" width="24" height="24" fill="none" viewBox="0 0 24 24"><path stroke="currentColor" stroke-linecap="round" stroke-linejoin="round" stroke-width="1.5" d="M12 17.667V21M5.25 5l13.5 14.667m-3.01-3.271a6.14 6.14 0 0 1-6.403.664 6.05 6.05 0 0 1-2.49-2.214 5.95 5.95 0 0 1-.922-3.18m12.15 0a5.9 5.9 0 0 1-.615 2.635m-3.546.116A3.4 3.4 0 0 1 12 15a3.4 3.4 0 0 1-2.386-.976 3.3 3.3 0 0 1-.989-2.357v-3m.278-3.662a3.34 3.34 0 0 1 1.245-1.46 3.405 3.405 0 0 1 4.239.431c.632.625.988 1.473.988 2.357v5.334q0 .175-.019.349"/></svg>