<svg xmlns="http://www.w3.org/2000/svg" width="24" height="24" fill="none" viewBox="0 0 24 24"><path fill="currentColor" d="M3.75 4.5H3zm0 4.5H3c0 .414.336.75.75.75zm0 10.5a.75.75 0 0 0 0 1.5zm3.75-2.25a.75.75 0 0 0 1.5 0zm-3-13.5v.75h15V3h-15zm15 0v.75H21A1.5 1.5 0 0 0 19.5 3zm.75.75h-.75v15H21v-15zm0 15h-.75V21a1.5 1.5 0 0 0 1.5-1.5zm-16.5-15h.75V3A1.5 1.5 0 0 0 3 4.5zm0 0H3V9h1.5V4.5zm7.5 4.5v.75c.131 0 .325.073.5.25.177.175.25.369.25.5h1.5c0-.619-.302-1.175-.688-1.562-.387-.386-.943-.688-1.562-.688zm8.25 11.25v-.75h-6.75V21h6.75zm-6.75 0v-.75h-9V21h9zm0-9.75H12v9.75h1.5V10.5zm-9-1.5v.75h4.5v-1.5h-4.5zm4.5 0v.75h3v-1.5h-3zm0 0H7.5v2.25H9V9zm0 2.25H7.5v5.25H9v-5.25zm0 5.25H7.5v.75H9v-.75zm0-5.25v-.75h-1.5V12h1.5zm-1.5 0v-.75c-.17 0-.36-.001-.516.016a1.1 1.1 0 0 0-.67.297c-.233.233-.28.52-.298.67-.017.157-.016.348-.016.517h1.5v-.129l.004-.179.003-.043q.002-.012 0-.003l-.012.041a.5.5 0 0 1-.076.136.56.56 0 0 1-.232.172l-.042.012q-.008.002.004 0a1 1 0 0 1 .119-.006h.103L6.75 12zM6 12h-.75v3.75h1.5V12zm0 3.75h-.75c0 .17-.001.36.016.516.017.152.065.438.297.67.233.233.52.28.67.298.157.017.348.016.517.016v-1.5h-.129a6 6 0 0 1-.222-.007q-.013-.002-.004 0 .009 0 .042.012a.5.5 0 0 1 .187.12.6.6 0 0 1 .121.188l.012.042q.002.009 0-.004l-.003-.043a2 2 0 0 1-.004-.18v-.128zm.75.75v.75h1.5v-1.5h-1.5zm1.5 0v.75h1.5v-1.5h-1.5zm1.5 0v.75c.17 0 .36.001.516-.016.152-.017.438-.065.67-.297.233-.233.28-.52.298-.67.017-.157.016-.348.016-.517h-1.5v.129l-.004.179-.003.043q-.002.012 0 .004l.012-.042a.5.5 0 0 1 .076-.136.56.56 0 0 1 .232-.172l.041-.012q.01-.002-.003 0a1 1 0 0 1-.119.006H9.88l-.129.001zm.75-.75h.75V12h-1.5v3.75zm0-3.75h.75c0-.17.001-.36-.016-.516a1.1 1.1 0 0 0-.297-.67 1.1 1.1 0 0 0-.67-.298c-.157-.017-.348-.016-.517-.016V12l.308.004.043.003q.012.002.003 0l-.041-.012a.5.5 0 0 1-.187-.12.6.6 0 0 1-.121-.188l-.012-.041q-.002-.01 0 .003l.003.043a2 2 0 0 1 .004.18V12zm-.75-.75v-.75h-1.5V12h1.5zm8.25 4.5h-.75a.75.75 0 0 1-.75.75V18a2.25 2.25 0 0 0 2.25-2.25zm-1.5 1.5v-.75a.75.75 0 0 1-.75-.75h-1.5A2.25 2.25 0 0 0 16.5 18zm-1.5-1.5h.75a.75.75 0 0 1 .75-.75v-1.5a2.25 2.25 0 0 0-2.25 2.25zm1.5-1.5V15a.75.75 0 0 1 .75.75h1.5a2.25 2.25 0 0 0-2.25-2.25z"/></svg>