<svg xmlns="http://www.w3.org/2000/svg" width="24" height="24" fill="none" viewBox="0 0 24 24"><path fill="currentColor" d="m8.787 10.762-.574-.483zm1.451 0-.574.482zm.487.578.574-.482zm.816.332-.071-.747zm.761-.073.071.747zm1.026 1.006.747.074zm-.074.745-.746-.073zm.338.8-.47.584zm.591.477.47-.584zm0 1.421.47.584zm-.59.477-.471-.584zm-.339.8-.746.073zm.074.745.747-.074zm-1.026 1.006.071-.747zm-.761-.073-.071.747zm-.816.332.574.482zm-.487.578-.574-.482zm-1.45 0-.575.483zm-.487-.578-.574.482zm-.816-.332.07.747zm-.761.073-.071-.747zM5.697 18.07l-.746-.074zm.074-.745.747.073zm-.338-.8.471-.584zm-.59-.477-.471.584zm0-1.421-.471-.584zm.59-.477.47.584h.001zm.338-.8.747-.073zm-.074-.745-.746.074zm1.027-1.006-.072.747zm.76.073.072-.747zm.817-.332.575.483zm-.139 3.47a.75.75 0 0 0-1 1.118l.5-.56zm.622 1.563.5-.559zm.806-.058-.575-.482zm2.533-1.856a.75.75 0 0 0-1.15-.963l.575.482zm-1.146-8.92a.75.75 0 0 0 0 1.5zm5.182 1.5a.75.75 0 0 0 0-1.5zm-8.523.836a.75.75 0 0 0 1.5 0zM15.188 19.5a.75.75 0 0 0 0 1.5zm-6.4-8.738.573.482a.202.202 0 0 1 .303 0l.574-.482.575-.483a1.702 1.702 0 0 0-2.6 0zm1.45 0-.574.482.486.579.575-.483.574-.482-.486-.579zm.487.578-.575.483a1.7 1.7 0 0 0 1.462.595l-.071-.746-.071-.747a.2.2 0 0 1-.171-.067zm.816.332.07.746.762-.072-.07-.747-.072-.746-.761.072zm.761-.073.071.747c.138-.013.218.097.209.185l.746.074.747.074c.105-1.066-.804-1.925-1.844-1.826zm1.026 1.006-.746-.074-.074.745.746.075.747.074.074-.746zm-.074.745-.746-.073a1.66 1.66 0 0 0 .614 1.457l.47-.584.471-.583a.16.16 0 0 1-.062-.143zm.338.8-.47.584.59.476.471-.583.47-.584-.59-.476zm.591.477-.47.583a.16.16 0 0 1 0 .255l.47.583.47.584c.83-.668.83-1.92 0-2.59zm0 1.421-.47-.583-.591.476.47.584.471.584.59-.477zm-.59.477-.471-.584a1.66 1.66 0 0 0-.614 1.457l.746-.073.747-.075a.16.16 0 0 1 .062-.142zm-.339.8-.746.073.074.746.746-.074.747-.074-.074-.745zm.074.745-.746.074c.009.088-.07.198-.209.185l-.07.747-.072.746c1.04.1 1.95-.76 1.844-1.826zm-1.026 1.006.071-.747-.761-.072-.071.746-.071.747.761.072zm-.761-.073.07-.746a1.7 1.7 0 0 0-1.46.595l.574.483.574.482a.2.2 0 0 1 .17-.067zm-.816.332-.575-.483-.486.579.574.482.575.483.486-.579zm-.487.578-.574-.482a.202.202 0 0 1-.302 0l-.575.482-.574.483a1.702 1.702 0 0 0 2.6 0zm-1.45 0 .574-.482-.486-.579-.575.483-.574.482.486.579zm-.487-.578.575-.483a1.7 1.7 0 0 0-1.462-.595l.07.746.072.747a.2.2 0 0 1 .17.067zm-.816-.332-.071-.746-.761.072.07.747.072.746.76-.072zm-.761.073-.072-.747c-.137.013-.217-.097-.208-.185l-.747-.074-.746-.074c-.106 1.066.804 1.925 1.844 1.826zM5.697 18.07l.747.074.074-.745-.747-.075-.746-.074-.074.746zm.074-.745.747.073a1.66 1.66 0 0 0-.614-1.457l-.47.584-.472.583a.16.16 0 0 1 .063.142zm-.338-.8.47-.584-.59-.476-.47.583-.471.584.59.476zm-.59-.477.47-.583a.16.16 0 0 1 0-.255l-.47-.583-.471-.584c-.83.668-.83 1.92 0 2.59zm0-1.421.47.583.59-.476-.47-.584-.47-.583-.591.476zm.59-.477.471.584c.435-.351.67-.897.614-1.457l-.747.074-.746.073a.16.16 0 0 1-.063.143zm.338-.8.747-.073-.074-.746-.747.074-.746.074.074.746zm-.074-.745.747-.074c-.009-.088.07-.198.208-.185l.072-.747.07-.746c-1.039-.1-1.949.76-1.843 1.826zm1.027-1.006-.072.747.762.072.07-.746.072-.747-.761-.072zm.76.073-.07.746a1.7 1.7 0 0 0 1.462-.595L8.3 11.34l-.574-.482a.2.2 0 0 1-.171.067zm.817-.332.575.483.486-.579-.575-.482-.574-.483-.486.58zm-.639 4.029-.5.559 1.122 1.004.5-.559.5-.559-1.122-1.004zm1.122 1.004-.5.559a1.31 1.31 0 0 0 1.88-.135l-.574-.482-.575-.482a.19.19 0 0 1 .27-.019zm.806-.058.574.482 1.96-2.338-.575-.481-.575-.482-1.96 2.337zm9.16-11.296H18v13.962h1.5V5.019zm0 13.962H18c0 .272-.23.519-.546.519V21c1.116 0 2.046-.89 2.046-2.02zM8.386 5.019h.75c0-.272.23-.519.546-.519V3c-1.115 0-2.046.89-2.046 2.02zM9.682 3.75v.75h7.772V3H9.683zm7.772 0v.75c.316 0 .546.247.546.52h1.5c0-1.13-.93-2.02-2.046-2.02zm-6.477 2.538v.75h5.182v-1.5h-5.182zm-2.59 1.587h.75V5.019h-1.5v2.856zm9.067 12.375v-.75h-2.267V21h2.268z"/></svg>