<svg xmlns="http://www.w3.org/2000/svg" width="24" height="24" fill="none" viewBox="0 0 24 24"><path stroke="currentColor" stroke-linecap="round" stroke-linejoin="round" stroke-width="1.5" d="m6 13.5 3.594-3.53a.75.75 0 0 1 1.062 0L15 14.442l2.719-2.224a.75.75 0 0 1 1.06 0L21 14.443M18 16.5v2.25a.75.75 0 0 1-.75.75H3.75a.75.75 0 0 1-.75-.75V8.25a.75.75 0 0 1 .75-.75H6m.75-3h13.5a.75.75 0 0 1 .75.75v10.5a.75.75 0 0 1-.75.75H6.75a.75.75 0 0 1-.75-.75V5.25a.75.75 0 0 1 .75-.75m10.5 3.75a1.5 1.5 0 1 1-3 0 1.5 1.5 0 0 1 3 0"/></svg>