<svg xmlns="http://www.w3.org/2000/svg" width="24" height="24" fill="none" viewBox="0 0 24 24"><path stroke="currentColor" stroke-linecap="round" stroke-width="1.5" d="m14.539 5.589-3.584-1.75a.91.91 0 0 0-.79 0l-1.485.708a.9.9 0 0 0-.334.28.83.83 0 0 0-.08.824.9.9 0 0 0 .275.335L10.61 7.5M3.75 20.25H12m5.172-15.647-9.8 5.07L5.852 8.5l-1.63.735a.86.86 0 0 0-.316.277.886.886 0 0 0 .142 1.168l3.1 2.7a1.67 1.67 0 0 0 1.862.238l2.81-1.429v4.438a.9.9 0 0 0 .102.424c.069.13.17.24.292.318a.83.83 0 0 0 .823.042l1.46-.742a.86.86 0 0 0 .45-.579l1.451-6.226 2.67-1.356c.25-.127.474-.304.658-.52s.324-.466.413-.738a2.23 2.23 0 0 0-.112-1.664 2.2 2.2 0 0 0-.508-.674 2.08 2.08 0 0 0-2.347-.309Z"/></svg>