<svg xmlns="http://www.w3.org/2000/svg" width="24" height="24" fill="none" viewBox="0 0 24 24"><path stroke="currentColor" stroke-linecap="round" stroke-linejoin="round" stroke-width="1.5" d="M20.25 20.25H12m3.873-9.575-.816-4.117a.9.9 0 0 0-.184-.386 1 1 0 0 0-.351-.27l-1.68-.77a1.07 1.07 0 0 0-.966.045.96.96 0 0 0-.345.334.87.87 0 0 0-.126.447v2.706m7.46 3.358-11.53-5.19-.005-2.056-1.82-.931a1.07 1.07 0 0 0-.941.03 1 1 0 0 0-.348.313.9.9 0 0 0-.147.428L3.807 9a1.73 1.73 0 0 0 .267 1.026c.196.31.486.562.834.722l3.28 1.507-4.044 2.811a.94.94 0 0 0-.31.363.86.86 0 0 0 .09.89 1 1 0 0 0 .377.304l1.705.78a1.06 1.06 0 0 0 .843.019l6.69-2.718 3.117 1.431c.59.271 1.274.314 1.9.12A2.44 2.44 0 0 0 19.99 15.1c.294-.545.34-1.176.13-1.754a2.36 2.36 0 0 0-1.25-1.325z"/></svg>