<svg xmlns="http://www.w3.org/2000/svg" width="24" height="24" viewBox="0 0 24 24" fill="none"><path d="M6 3.73876V20.2613C6.00245 20.3931 6.03962 20.522 6.10776 20.6349C6.1759 20.7478 6.2726 20.8407 6.38812 20.9043C6.50364 20.9679 6.63388 20.9999 6.76572 20.9972C6.89756 20.9944 7.02634 20.9569 7.13906 20.8884L20.6466 12.6272C20.7545 12.5619 20.8437 12.4699 20.9056 12.36C20.9675 12.2501 21.0001 12.1261 21.0001 12C21.0001 11.8739 20.9675 11.7499 20.9056 11.64C20.8437 11.5302 20.7545 11.4381 20.6466 11.3728L7.13906 3.11157C7.02634 3.04314 6.89756 3.00564 6.76572 3.00285C6.63388 3.00007 6.50364 3.03209 6.38812 3.0957C6.2726 3.1593 6.1759 3.25224 6.10776 3.36514C6.03962 3.47804 6.00245 3.60691 6 3.73876Z" stroke="currentColor" stroke-width="1.5" stroke-linecap="round" stroke-linejoin="round"/></svg>