<svg xmlns="http://www.w3.org/2000/svg" width="24" height="24" fill="none" viewBox="0 0 24 24"><path stroke="currentColor" stroke-linecap="round" stroke-linejoin="round" stroke-width="1.5" d="M9.82 12.662a4.4 4.4 0 0 1-1.5-1.076 4.7 4.7 0 0 1-.96-1.616 4.84 4.84 0 0 1 .229-3.72 4.6 4.6 0 0 1 1.15-1.473 4.35 4.35 0 0 1 1.62-.866 4.2 4.2 0 0 1 1.815-.11 4.3 4.3 0 0 1 1.704.664l-1.546 6.463m.227 4.078a4.8 4.8 0 0 1-.136 1.901 4.7 4.7 0 0 1-.856 1.683c-.394.492-.88.894-1.43 1.18a4.25 4.25 0 0 1-3.56.169 4.4 4.4 0 0 1-1.526-1.04 4.7 4.7 0 0 1-.998-1.596 4.8 4.8 0 0 1-.3-1.88l6.119-1.83m3.256-2.243a4.3 4.3 0 0 1 1.64-.827 4.2 4.2 0 0 1 1.82-.066 4.3 4.3 0 0 1 1.69.708c.51.356.945.82 1.275 1.36.33.542.55 1.149.644 1.784a4.9 4.9 0 0 1-.096 1.903 4.7 4.7 0 0 1-.82 1.703 4.5 4.5 0 0 1-1.405 1.212l-4.572-4.633m.574-1.488c0 1.18-.914 2.138-2.042 2.138s-2.042-.957-2.042-2.138.914-2.138 2.042-2.138 2.042.957 2.042 2.138"/></svg>