<svg xmlns="http://www.w3.org/2000/svg" width="24" height="24" fill="none" viewBox="0 0 24 24"><path stroke="currentColor" stroke-width="1.5" d="M9.5 17.5a2 2 0 1 1-4 0m4 0a2 2 0 0 0-4 0m4 0H14m-8.5 0H4.004a1.5 1.5 0 0 1-1.5-1.504l.028-9.5A1.5 1.5 0 0 1 4.032 5h13.266a1.5 1.5 0 0 1 1.152.54l.45.54c.635.762.093 1.92-.9 1.92m2 9.5a2 2 0 1 1-4 0m4 0a2 2 0 0 0-4 0m4 0h.5A1.5 1.5 0 0 0 22 16v-2.93a1.5 1.5 0 0 0-.379-.996L18.001 8m-2 9.5h-2m0 0v-8A1.5 1.5 0 0 1 15.5 8H18m3.886 4.5H14m-7.5 0H10a1 1 0 0 0 1-1V9a1 1 0 0 0-1-1H6.5a1 1 0 0 0-1 1v2.5a1 1 0 0 0 1 1Z"/></svg>