<svg xmlns="http://www.w3.org/2000/svg" width="24" height="24" fill="none" viewBox="0 0 24 24"><path stroke="currentColor" stroke-linecap="round" stroke-linejoin="round" stroke-width="1.5" d="M7.286 9v11.4c0 .16.062.312.172.424a.58.58 0 0 0 .417.176h8.25a.58.58 0 0 0 .416-.176.6.6 0 0 0 .173-.424V9m0 3.6h2.947a.58.58 0 0 0 .416-.176.6.6 0 0 0 .173-.424V7.8a4.85 4.85 0 0 0-1.38-3.394A4.67 4.67 0 0 0 15.535 3h-1.179c0 .637-.248 1.247-.69 1.697A2.34 2.34 0 0 1 12 5.4m0 0a2.34 2.34 0 0 1-1.667-.703A2.42 2.42 0 0 1 9.643 3H8.464a4.67 4.67 0 0 0-3.333 1.406A4.85 4.85 0 0 0 3.75 7.8V12a.6.6 0 0 0 .173.424.58.58 0 0 0 .416.176h2.947M12 5.4v2.4m2.357 2.4h-1.179"/></svg>