<svg xmlns="http://www.w3.org/2000/svg" width="24" height="24" fill="none" viewBox="0 0 24 24"><path fill="currentColor" d="M6.22 9.595a.75.75 0 1 0 1.06 1.06zm3 1.06a.75.75 0 1 0 1.06-1.06zm4.5-1.06a.75.75 0 1 0 1.06 1.06zm3 1.06a.75.75 0 1 0 1.06-1.06zM7.125 14.25v-.75a.75.75 0 0 0-.683 1.06zm9.75 0 .683.31a.75.75 0 0 0-.683-1.06zM21 12h-.75A8.25 8.25 0 0 1 12 20.25v1.5A9.75 9.75 0 0 0 21.75 12zm-9 9v-.75A8.25 8.25 0 0 1 3.75 12h-1.5A9.75 9.75 0 0 0 12 21.75zm-9-9h.75A8.25 8.25 0 0 1 12 3.75v-1.5A9.75 9.75 0 0 0 2.25 12zm9-9v.75A8.25 8.25 0 0 1 20.25 12h1.5A9.75 9.75 0 0 0 12 2.25zm-5.25 7.125.53.53c.203-.202.556-.342.97-.342s.767.14.97.342l.53-.53.53-.53c-.547-.548-1.319-.783-2.03-.783s-1.483.235-2.03.783zm7.5 0 .53.53c.203-.202.556-.342.97-.342s.767.14.97.342l.53-.53.53-.53c-.547-.548-1.319-.783-2.03-.783s-1.483.235-2.03.783zM7.125 14.25V15h9.75v-1.5h-9.75zm0 0-.683.31c2.142 4.711 8.974 4.711 11.116 0l-.683-.31-.683-.31c-1.608 3.539-6.776 3.539-8.384 0z"/></svg>