<svg xmlns="http://www.w3.org/2000/svg" width="24" height="24" fill="none" viewBox="0 0 24 24"><path stroke="currentColor" stroke-linecap="round" stroke-width="1.5" d="M15.5 18.5h3.45A3.11 3.11 0 0 0 22 16m-3.72-7.203 3.334 3.406a.5.5 0 0 1-.045.74l-2.158 1.728a1.5 1.5 0 0 1-.937.329h-2.179c-.493 0-.95-.259-1.204-.682A3.75 3.75 0 0 0 11.88 12.5H7.5a3 3 0 0 1-3-3V7m13.78 1.797a1.5 1.5 0 0 0-1.768-.28l-1.551.812a1.5 1.5 0 0 1-.696.171H8.45a1.5 1.5 0 0 1-1.106-.487L5.797 7.325A1 1 0 0 0 5.06 7H4.5m13.78 1.797-2.987-3.004a1 1 0 0 0-.707-.293H12.5M3 7h1.5M19 18.5 17 15M4.5 18.5h7a1.5 1.5 0 0 0 0-3h-7a1.5 1.5 0 0 0 0 3Z"/></svg>