<svg xmlns="http://www.w3.org/2000/svg" width="24" height="24" fill="none" viewBox="0 0 24 24"><path stroke="currentColor" stroke-linecap="round" stroke-linejoin="round" stroke-width="1.5" d="M13.5 12.75c-3.098 1.074-4.12 2.27-4.875 5.25-.755-2.979-1.777-4.175-4.875-5.25 3.098-1.073 4.12-2.27 4.875-5.25.755 2.98 1.777 4.176 4.875 5.25m6-6.375c-2.145.69-2.852 1.46-3.375 3.375-.523-1.915-1.23-2.684-3.375-3.375 2.145-.69 2.851-1.46 3.375-3.375.523 1.916 1.23 2.684 3.375 3.375m0 12c-1.668.537-2.218 1.135-2.625 2.625-.407-1.49-.957-2.088-2.625-2.625 1.668-.537 2.218-1.135 2.625-2.625.407 1.49.957 2.088 2.625 2.625"/></svg>