<svg xmlns="http://www.w3.org/2000/svg" width="24" height="24" fill="none" viewBox="0 0 24 24"><path fill="currentColor" d="M12 1.5a1.535 1.535 0 0 1 1.419.951l2.132 5.163 5.535.451h.01a1.545 1.545 0 0 1 .874 2.697l-.006.005-4.22 3.64 1.288 5.438.024.111a1.538 1.538 0 0 1-2.315 1.567l-.004-.003L12 18.607l-.045.027h.001L7.263 21.52l-.004.003a1.54 1.54 0 0 1-2.242-.788 1.54 1.54 0 0 1-.05-.89l1.289-5.435-4.22-3.64a1.544 1.544 0 0 1 .873-2.705h.005l5.534-.45 2.133-5.164A1.535 1.535 0 0 1 12 1.5m.312 15.546a1 1 0 0 1 .08.042l5.127 3.153.021.005a.04.04 0 0 0 .02-.007.04.04 0 0 0 .014-.017.04.04 0 0 0 .001-.022v-.005l-1.396-5.886a.75.75 0 0 1 .24-.742l4.56-3.934.014-.02a.04.04 0 0 0 0-.024.04.04 0 0 0-.015-.02l-.023-.01-5.982-.487a.75.75 0 0 1-.632-.46l-2.029-4.91z"/></svg>