<svg xmlns="http://www.w3.org/2000/svg" width="24" height="24" fill="none" viewBox="0 0 24 24"><path fill="currentColor" d="M14.341 8.611a.75.75 0 1 0 1.386-.572zm-1.615-5.873-.694.283.001.003zm-.288-.355.418-.622zm-.875 0-.418-.622zm-.288.355.693.286.001-.003zM8.967 8.325l.06.748a.75.75 0 0 0 .633-.462zm-5.992.488-.06-.748H2.91zm-.425.17.468.586zm-.26.376.714.23zm.236.844-.49.568zm4.566 3.937.73.173a.75.75 0 0 0-.24-.74zm-1.395 5.882.728.178.002-.005zm1.174.86.389.641h.001zm3.27-1.117a.75.75 0 1 0-.782-1.28zm4.643-4.274a.75.75 0 0 0-1.068 1.054zm1.054 2.134-.533.527a.75.75 0 0 0 1.126-.067zm3.504-3.29a.75.75 0 0 0-1.184-.92zm-4.308-6.01.693-.286L13.42 2.45l-.693.287-.693.286 2.308 5.587zm-2.308-5.587.694-.284a1.53 1.53 0 0 0-.564-.693l-.418.622-.419.623q.009.005.013.015zm-.288-.355.418-.622a1.53 1.53 0 0 0-.855-.261V3q.01 0 .018.006zM12 2.25V1.5c-.305 0-.603.09-.856.26l.418.623.419.623A.03.03 0 0 1 12 3zm-.438.133-.418-.622c-.253.17-.45.411-.564.693l.694.284.694.283a.03.03 0 0 1 .013-.015zm-.288.355-.693-.287L8.274 8.04l.693.286.693.286 2.308-5.587zM8.967 8.325l-.061-.747-5.992.487.061.748.061.747 5.992-.487zm-5.992.488-.065-.748c-.303.027-.59.142-.827.331l.467.586.468.587a.04.04 0 0 1 .023-.01zm-.425.17-.467-.587a1.54 1.54 0 0 0-.507.732l.714.23.714.231a.04.04 0 0 1 .014-.02zm-.26.376-.714-.23c-.093.288-.1.598-.017.89l.722-.203.722-.202a.04.04 0 0 1 0-.025zm-.01.457-.721.203c.081.292.247.553.477.752l.49-.568.49-.568a.04.04 0 0 1-.013-.02zm.246.387-.49.568 4.566 3.937.49-.568.49-.568-4.566-3.937zm4.566 3.937-.73-.173-1.395 5.882.73.173.73.173 1.395-5.882zm-1.395 5.882-.729-.177c-.072.295-.055.605.05.89l.704-.256.705-.257a.04.04 0 0 1-.002-.022zm.025.457-.705.257c.105.285.291.534.536.713l.444-.605.443-.605a.04.04 0 0 1-.013-.017zm.275.365-.444.605c.246.18.539.283.842.296l.033-.75.032-.749a.04.04 0 0 1-.02-.007zm.43.151-.032.75c.304.013.605-.064.865-.222l-.39-.641-.389-.641a.04.04 0 0 1-.02.005zm.444-.113.39.64 2.88-1.757-.391-.64-.39-.64-2.88 1.757zM21.75 15.75H21a4.5 4.5 0 0 1-4.5 4.5v1.5a6 6 0 0 0 6-6zM16.5 21v-.75a4.5 4.5 0 0 1-4.5-4.5h-1.5a6 6 0 0 0 6 6zm-5.25-5.25H12a4.5 4.5 0 0 1 4.5-4.5v-1.5a6 6 0 0 0-6 6zm5.25-5.25v.75a4.5 4.5 0 0 1 4.5 4.5h1.5a6 6 0 0 0-6-6zm-2.25 5.518-.534.527 1.589 1.607.533-.527.534-.527-1.588-1.607zm1.588 1.607.593.46 2.911-3.75-.592-.46-.592-.46-2.912 3.75z"/></svg>