<svg xmlns="http://www.w3.org/2000/svg" width="24" height="24" fill="none" viewBox="0 0 24 24"><path stroke="currentColor" stroke-linecap="round" stroke-linejoin="round" stroke-width="1.5" d="m3.75 4.875 2.03 2.03a.75.75 0 0 1 .22.53v10.19m-1.5 0h15.75m-12.375 0v1.5M18 17.625v1.5M15.906 7.787h2.438c.224 0 .406.17.406.38v6.078c0 .21-.182.38-.406.38H9.406c-.224 0-.406-.17-.406-.38V8.167c0-.21.182-.38.406-.38h2.438m4.062 0V5.635a.74.74 0 0 0-.238-.537.84.84 0 0 0-.574-.223h-2.438a.84.84 0 0 0-.574.223.74.74 0 0 0-.238.537v2.152m4.062 0h-4.062"/></svg>