<svg xmlns="http://www.w3.org/2000/svg" width="24" height="24" fill="none" viewBox="0 0 24 24"><path stroke="currentColor" stroke-linecap="round" stroke-linejoin="round" stroke-width="1.5" d="M13.5 12c.412-.46 1.208-.75 1.875-.75s1.463.29 1.875.75m-10.5 0c.412-.46 1.208-.75 1.875-.75s1.463.29 1.875.75m4.721 3.75a4.21 4.21 0 0 1-6.442 0M20.25 4.5a.75.75 0 0 0-1.02-.7c-1.418.551-4.147 1.423-7.23 1.423s-5.812-.872-7.23-1.421a.75.75 0 0 0-1.02.698v5.23c0 6.64 3.694 12.021 8.25 12.021s8.25-5.381 8.25-12.02z"/></svg>