<svg xmlns="http://www.w3.org/2000/svg" width="24" height="24" fill="none" viewBox="0 0 24 24"><path stroke="currentColor" stroke-linecap="round" stroke-linejoin="round" stroke-width="1.5" d="M7.875 18.188a2.75 2.75 0 1 0 0-5.5 2.75 2.75 0 0 0 0 5.5m0 0A5.16 5.16 0 0 0 3.75 20.25m4.125-2.062A5.16 5.16 0 0 1 12 20.25a5.16 5.16 0 0 1 4.125-2.062m0 0a2.75 2.75 0 1 0 0-5.5 2.75 2.75 0 0 0 0 5.5m0 0a5.16 5.16 0 0 1 4.125 2.062M12 9.25a2.75 2.75 0 1 0 0-5.5 2.75 2.75 0 0 0 0 5.5m0 0a5.16 5.16 0 0 0-3.437 1.313M12 9.25a5.16 5.16 0 0 1 3.438 1.313"/></svg>