<svg xmlns="http://www.w3.org/2000/svg" width="24" height="24" fill="none" viewBox="0 0 24 24"><path fill="currentColor" d="M11.521 2.51a1 1 0 0 1 .957 0l7.243 3.951a.97.97 0 0 1 .511.89 18.6 18.6 0 0 1-2.254 8.111c-1.349 2.45-3.227 4.5-5.468 5.968a.93.93 0 0 1-1.02 0c-2.24-1.469-4.12-3.517-5.468-5.968a18.6 18.6 0 0 1-2.254-8.11.97.97 0 0 1 .51-.891zm4.312 5.8c-.282-.084-.568.07-.758.294l-3.482 4.116a.49.49 0 0 1-.718.03l-1.207-1.207c-.188-.187-.447-.313-.704-.247a.87.87 0 0 0-.667.668c-.066.257.058.516.246.704l1.957 1.957c.375.375 1.125.375 1.5 0l4.259-4.97c.155-.18.256-.415.205-.648q-.12-.544-.631-.697"/></svg>