<svg xmlns="http://www.w3.org/2000/svg" width="24" height="24" fill="none" viewBox="0 0 24 24"><path fill="currentColor" d="M20.25 18H21l-.005-.088zm-1.5-12.75-.53-.53a.75.75 0 0 0-.215.618zm0-2.25v-.75a.75.75 0 0 0-.357.09zM15 5.25V6a.75.75 0 0 0 .335-.08zm-6.75 1.5.743.1A1 1 0 0 0 9 6.75zM6.75 18l-.743-.1A1 1 0 0 0 6 18zM3 14.25a.75.75 0 0 0 1.5 0zM17.25 21v.75c1.305 0 2.284-.444 2.92-1.207.616-.74.83-1.682.83-2.543h-1.5c0 .639-.161 1.197-.482 1.582-.302.362-.823.668-1.768.668zm1.5-15.75.53.53c.537-.537.782-1.3.782-1.936 0-.32-.061-.682-.251-.991a1.23 1.23 0 0 0-1.061-.603v1.5a.28.28 0 0 1-.217-.11c-.003-.006.03.054.03.204 0 .302-.13.663-.343.876zm0-2.25-.357-.66c-.762.412-1.351.805-1.913 1.171-.562.367-1.105.713-1.815 1.068L15 5.25l.335.67c.79-.394 1.392-.779 1.965-1.152.573-.375 1.109-.731 1.806-1.108zM15 5.25V4.5H9.75V6H15zm-5.25 0V4.5c-.619 0-1.175.302-1.562.688-.386.387-.688.943-.688 1.562H9c0-.131.073-.325.25-.5.175-.177.369-.25.5-.25zM6.75 18H6c0 .994.49 1.925 1.157 2.593.668.668 1.6 1.157 2.593 1.157v-1.5c-.506 0-1.075-.26-1.532-.718S7.5 18.506 7.5 18zm3 3v.75h7.5v-1.5h-7.5zM8.25 6.75l-.743-.1-.3 2.25.743.1.743.1.3-2.25zM7.95 9v-.75h-2.7v1.5h2.7zm-2.7 0v-.75c-.619 0-1.175.302-1.562.688C3.302 9.325 3 9.881 3 10.5h1.5c0-.131.073-.325.25-.5.175-.177.369-.25.5-.25zm-1.5 1.5H3v3.75h1.5V10.5zM7.95 9l-.743-.1-.8 6 .743.1.743.1.8-6zm-.8 6-.743-.1-.4 3 .743.1.743.1.4-3zm13.1 3 .745-.088-.353-3-.745.088-.745.088.353 3zm-.353-3 .745-.088-1.147-9.75-.745.088-.745.088 1.147 9.75zM7.15 15l-.418.623c1.034.694 2.278.833 3.497.758s2.52-.372 3.727-.65c1.238-.286 2.37-.55 3.354-.615.99-.066 1.663.083 2.101.456l.486-.572.486-.572c-.886-.752-2.048-.884-3.173-.81-1.13.076-2.393.374-3.592.651-1.23.284-2.409.55-3.481.615-1.072.066-1.928-.076-2.569-.507z"/></svg>